<svg width="400" height="400" viewBox="0 0 400 400" fill="none" xmlns="http://www.w3.org/2000/svg">
  <ellipse cx="200" cy="340" rx="60" ry="15" fill="#1a1a2e" fill-opacity="0.4"/>
  
  <defs>
    <radialGradient id="meeseeksGradient" cx="50%" cy="40%" r="50%" fx="40%" fy="30%">
      <stop offset="0%" style="stop-color:#b4f2ff" />
      <stop offset="70%" style="stop-color:#48c3eb" />
      <stop offset="100%" style="stop-color:#3a99b8" />
    </radialGradient>
    <filter id="glow">
      <feGaussianBlur stdDeviation="3" result="blur" />
      <feComposite in="SourceGraphic" in2="blur" operator="over" />
    </filter>
  </defs>

  <circle cx="200" cy="180" r="90" fill="url(#meeseeksGradient)" stroke="#2d4b5e" stroke-width="4"/>
  
  <path d="M125,160 Q110,140 100,165 Q115,185 130,175" fill="#48c3eb" stroke="#2d4b5e" stroke-width="3"/>

  <path d="M175,260 Q170,285 185,280" stroke="#2d4b5e" stroke-width="4" stroke-linecap="round"/>
  <path d="M225,260 Q230,285 215,280" stroke="#2d4b5e" stroke-width="4" stroke-linecap="round"/>

  <g fill="white">
    <circle cx="175" cy="165" r="14" fill="#2d4b5e"/>
    <circle cx="225" cy="165" r="14" fill="#2d4b5e"/>
    <circle cx="178" cy="162" r="5" fill="white"/>
    <circle cx="228" cy="162" r="5" fill="white"/>
  </g>
  
  <path d="M185,195 Q200,215 215,195" fill="#b04a5a" stroke="#2d4b5e" stroke-width="3" stroke-linecap="round"/>

  <rect x="235" y="195" width="65" height="85" rx="5" fill="#e0e0ff" stroke="#2d4b5e" stroke-width="4"/>
  <rect x="255" y="185" width="25" height="15" rx="3" fill="#a0a0d0" stroke="#2d4b5e" stroke-width="3"/>
  
  <line x1="245" y1="215" x2="285" y2="215" stroke="#2d4b5e" stroke-width="2"/>
  <line x1="245" y1="230" x2="285" y2="230" stroke="#2d4b5e" stroke-width="2"/>
  <line x1="245" y1="245" x2="285" y2="245" stroke="#2d4b5e" stroke-width="2"/>
  
  <path d="M290,270 L260,230" stroke="#f4d03f" stroke-width="6" stroke-linecap="round"/>
  <path d="M260,230 L255,235 L260,230" stroke="#2d4b5e" stroke-width="2"/>
</svg>
